# Blender 3.6.5
# www.blender.org
mtllib Panel.mtl
o IKE170001.007
v 0.164649 0.003159 -0.010000
v 0.164649 0.003160 0.010000
v 0.164185 0.002264 0.010000
v 0.164185 0.002264 -0.010000
v 0.160000 -0.000000 -0.010000
v 0.164917 0.004090 -0.010000
v 0.164917 0.004090 0.010000
v 0.165000 0.005000 -0.010000
v 0.165000 0.005000 0.010000
v -0.160000 -0.000000 -0.010000
v 0.165000 0.291250 -0.010000
v 0.164917 0.292160 -0.010000
v 0.165000 0.291250 0.010000
v 0.160000 0.296250 0.010000
v 0.164917 0.292160 0.010000
v 0.164649 0.293091 -0.010000
v 0.164649 0.293091 0.010000
v 0.164185 0.293986 0.010000
v 0.164185 0.293986 -0.010000
v 0.163536 0.294785 -0.010000
v 0.162736 0.295435 -0.010000
v 0.163536 0.294785 0.010000
v 0.162736 0.295435 0.010000
v 0.161841 0.295899 -0.010000
v 0.161841 0.295899 0.010000
v 0.160910 0.296167 -0.010000
v 0.160910 0.296167 0.010000
v 0.160000 0.296250 -0.010000
v 0.081548 0.296250 -0.010000
v 0.081548 0.296250 0.010000
v 0.063577 0.297059 -0.010000
v 0.063577 0.297059 0.010000
v 0.045155 0.299589 -0.010000
v 0.045155 0.299589 0.010000
v 0.026516 0.303970 -0.010000
v 0.019984 0.305961 0.010000
v 0.019984 0.305961 -0.010000
v 0.026516 0.303970 0.010000
v 0.160000 0.000000 0.010000
v 0.160910 0.000083 -0.010000
v -0.164185 0.321486 0.010000
v 0.160910 0.000084 0.010000
v -0.004984 0.314039 0.010000
v -0.048577 0.322941 0.010000
v -0.066548 0.323750 0.010000
v -0.030155 0.320411 0.010000
v -0.011516 0.316030 0.010000
v -0.165000 0.005000 0.010000
v -0.160000 0.000000 0.010000
v -0.165000 0.318750 0.010000
v -0.164917 0.319660 0.010000
v -0.160000 0.323750 0.010000
v -0.160910 0.323667 0.010000
v -0.161841 0.323399 0.010000
v -0.162736 0.322935 0.010000
v -0.163536 0.322286 0.010000
v -0.164649 0.320591 0.010000
v -0.164649 0.320591 -0.010000
v -0.164917 0.319660 -0.010000
v -0.160000 0.323750 -0.010000
v -0.165000 0.318750 -0.010000
v -0.165000 0.005000 -0.010000
v -0.164917 0.004090 0.010000
v -0.164917 0.004090 -0.010000
v -0.164649 0.003159 -0.010000
v -0.164649 0.003160 0.010000
v -0.164185 0.002264 -0.010000
v -0.163536 0.001464 -0.010000
v -0.164185 0.002264 0.010000
v -0.160910 0.000084 0.010000
v -0.163536 0.001465 0.010000
v -0.162736 0.000815 0.010000
v -0.161841 0.000351 -0.010000
v -0.161841 0.000351 0.010000
v -0.162736 0.000815 -0.010000
v -0.160910 0.000083 -0.010000
v -0.160910 0.323667 -0.010000
v -0.161841 0.323399 -0.010000
v -0.162736 0.322935 -0.010000
v -0.163536 0.322286 -0.010000
v -0.164185 0.321486 -0.010000
v -0.066548 0.323750 -0.010000
v -0.048577 0.322941 -0.010000
v -0.030155 0.320411 -0.010000
v -0.011516 0.316030 -0.010000
v -0.004984 0.314039 -0.010000
v 0.161841 0.000351 -0.010000
v 0.161841 0.000351 0.010000
v 0.162736 0.000815 -0.010000
v 0.162736 0.000815 0.010000
v 0.163536 0.001465 0.010000
v 0.163536 0.001464 -0.010000
vn 0.8370 -0.5471 -0.0000
vn 0.9297 -0.3682 -0.0000
vn 0.9833 -0.1821 -0.0000
vn 0.8370 -0.5472 -0.0000
vn -0.0000 -0.0000 -1.0000
vn 0.9833 -0.1820 -0.0000
vn 1.0000 -0.0000 -0.0000
vn 0.9833 0.1820 -0.0000
vn -0.0000 -0.0000 1.0000
vn 0.9298 0.3682 -0.0000
vn 0.9298 0.3681 -0.0000
vn 0.8370 0.5473 -0.0000
vn 0.8370 0.5472 -0.0000
vn 0.7071 0.7071 -0.0000
vn 0.5473 0.8369 -0.0000
vn 0.3681 0.9298 -0.0000
vn 0.1820 0.9833 -0.0000
vn -0.0000 1.0000 -0.0000
vn 0.0903 0.9959 -0.0000
vn 0.0900 0.9959 -0.0000
vn 0.1822 0.9833 -0.0000
vn 0.1819 0.9833 -0.0000
vn 0.2752 0.9614 -0.0000
vn 0.3078 0.9515 -0.0000
vn 0.3078 0.9514 -0.0000
vn 0.1821 -0.9833 -0.0000
vn 0.1820 -0.9833 -0.0000
vn -0.0000 -1.0000 -0.0000
vn -0.9833 0.1820 -0.0000
vn -0.9298 0.3682 -0.0000
vn -0.9298 0.3681 -0.0000
vn -0.8370 0.5473 -0.0000
vn -1.0000 -0.0000 -0.0000
vn -0.9833 -0.1820 -0.0000
vn -0.9298 -0.3681 -0.0000
vn -0.8370 -0.5472 -0.0000
vn -0.7071 -0.7071 -0.0000
vn -0.5473 -0.8369 -0.0000
vn -0.5472 -0.8370 -0.0000
vn -0.3680 -0.9298 -0.0000
vn -0.3681 -0.9298 -0.0000
vn -0.1821 -0.9833 -0.0000
vn -0.1820 -0.9833 -0.0000
vn -0.1821 0.9833 -0.0000
vn 0.0901 0.9959 -0.0000
vn 0.1821 0.9833 -0.0000
vn -0.8370 0.5472 -0.0000
vn -0.7071 0.7071 -0.0000
vn -0.5473 0.8369 -0.0000
vn -0.3681 0.9298 -0.0000
vn 0.3681 -0.9298 -0.0000
vn 0.3682 -0.9298 -0.0000
vn 0.5472 -0.8370 -0.0000
vn 0.5471 -0.8371 -0.0000
vn 0.7071 -0.7071 -0.0000
vt 0.025900 0.359800
vt 0.285300 0.372200
vt 0.025900 0.372200
vt 0.285300 0.384600
vt 0.285300 0.359800
vt 0.064800 -0.000000
vt 0.004600 0.041000
vt 0.010600 0.029400
vt 0.001100 0.053000
vt 0.025900 0.384600
vt 0.285300 0.397000
vt 0.000000 0.064800
vt 0.025900 0.397000
vt 4.214200 -0.000000
vt 0.259300 3.711700
vt 0.000000 -0.000000
vt 0.259300 0.000000
vt 0.000000 3.776500
vt 0.001100 3.788300
vt 0.285300 0.012400
vt 0.025900 0.000000
vt 0.285300 0.000000
vt 0.000000 3.711700
vt -0.001100 3.788300
vt -0.064800 3.841400
vt 0.025900 0.012400
vt 0.285300 0.024800
vt 0.025900 0.024800
vt -0.004600 3.800400
vt -0.010600 3.812000
vt 0.285300 0.037200
vt 0.025900 0.037200
vt 0.019000 3.822400
vt 0.010600 3.812000
vt 0.285300 0.049600
vt 0.004600 3.800400
vt 0.029400 3.830800
vt 0.025900 0.049600
vt 0.285300 0.062000
vt -0.029400 3.830800
vt -0.019000 3.822400
vt 0.025900 0.062000
vt -0.041000 3.836800
vt 0.285300 0.074400
vt 0.025900 0.074400
vt -0.053000 3.840300
vt 0.285300 0.086800
vt 0.025900 0.086800
vt 0.025900 0.099200
vt 0.285300 0.099200
vt 0.064800 3.841400
vt 0.053000 3.840300
vt 0.041000 3.836800
vt 0.259300 1.017300
vt 1.082100 3.841400
vt 0.000000 1.017300
vt 0.285300 4.217800
vt 0.025900 3.969700
vt 0.285300 3.969700
vt 1.315100 3.851900
vt 0.025900 4.217800
vt 0.285300 4.465900
vt 1.554000 3.884700
vt 0.025900 4.465900
vt 1.795700 3.941500
vt 0.285300 4.714000
vt 0.025900 4.714000
vt 0.025900 4.800900
vt 0.285300 4.800900
vt 1.880400 3.967300
vt -0.064800 -0.000000
vt -1.795700 3.941500
vt -1.880400 3.967300
vt -1.554000 3.884700
vt 0.285300 0.310100
vt 0.025900 0.310100
vt 0.025900 0.297700
vt 0.285300 0.297700
vt -2.204100 4.072000
vt -4.260000 4.179000
vt -4.268400 4.168600
vt -4.274500 4.157000
vt 0.259300 4.149300
vt 0.000000 4.149300
vt -0.053000 0.001100
vt -2.288800 4.097900
vt -2.530500 4.154700
vt -2.769400 4.187500
vt -3.002400 4.198000
vt -4.214200 4.198000
vt -1.315100 3.851900
vt -1.082100 3.841400
vt -4.279000 4.133100
vt -4.279000 0.064800
vt -4.214200 -0.000000
vt -4.277900 4.144900
vt -4.226000 4.196900
vt -4.238000 4.193400
vt -4.249600 4.187400
vt 0.285300 0.186100
vt 0.025900 0.186100
vt 0.025900 0.173700
vt 0.285300 0.173700
vt 0.025900 0.161300
vt 0.285300 0.198500
vt 4.274500 4.157000
vt 4.214200 4.198000
vt 4.277900 4.144900
vt 4.279000 4.133100
vt 0.025900 0.198500
vt 0.259300 4.068300
vt 4.279000 0.064800
vt 0.285300 0.210900
vt 0.025900 0.210900
vt 0.000000 4.068300
vt 4.277900 0.053000
vt 0.285300 0.223300
vt 4.274500 0.041000
vt 0.025900 0.223300
vt 0.285300 0.235700
vt 4.268400 0.029400
vt 4.260000 0.019000
vt 0.285300 0.248100
vt 0.025900 0.235700
vt 0.025900 0.248100
vt -4.274500 0.041000
vt -4.268400 0.029400
vt -4.226000 0.001100
vt -4.260000 0.019000
vt -4.249600 0.010600
vt 0.025900 0.260500
vt 0.285300 0.260500
vt 0.285300 0.272900
vt 0.025900 0.272900
vt -4.238000 0.004600
vt 4.249600 0.010600
vt 4.238000 0.004600
vt 0.025900 0.285300
vt 4.226000 0.001100
vt 0.285300 0.285300
vt -4.277900 0.053000
vt 4.238000 4.193400
vt 4.226000 4.196900
vt 0.285300 0.111600
vt 0.259300 1.211800
vt -0.000000 1.211800
vt 4.249600 4.187400
vt 4.260000 4.179000
vt 4.268400 4.168600
vt 3.002400 4.198000
vt 0.025900 3.721600
vt 0.285300 3.721600
vt 2.769400 4.187500
vt 0.025900 3.473500
vt 0.285300 3.473500
vt 2.530500 4.154700
vt 0.025900 3.225400
vt 0.285300 3.225400
vt 2.288800 4.097900
vt 0.025900 3.138500
vt 0.285300 3.138500
vt 2.204100 4.072000
vt 0.259300 0.340300
vt -0.000000 0.340300
vt 0.285300 0.161300
vt 0.025900 0.148900
vt 0.285300 0.148900
vt 0.025900 0.136500
vt 0.285300 0.136500
vt 0.025900 0.124100
vt 0.285300 0.124100
vt 0.025900 0.111600
vt 0.285300 0.322500
vt 0.025900 0.322500
vt -0.041000 0.004600
vt 0.285300 0.334900
vt 0.025900 0.334900
vt -0.029400 0.010600
vt -0.019000 0.019000
vt 0.025900 0.347300
vt 0.285300 0.347300
vt -0.010600 0.029400
vt 0.053000 0.001100
vt 0.019000 0.019000
vt 0.029400 0.010600
vt 0.041000 0.004600
vt -0.001100 0.053000
vt -0.004600 0.041000
s 1
g IKE170001.007_01___Default
usemtl 01___Default
f 3/1/1 1/2/2 2/3/2
f 2/3/2 1/2/2 6/4/3
f 1/2/2 3/1/1 4/5/4
f 5/6/5 1/7/5 4/8/5
f 5/6/5 6/9/5 1/7/5
f 2/3/2 6/4/3 7/10/6
f 7/10/6 6/4/3 8/11/7
f 5/6/5 8/12/5 6/9/5
f 7/10/6 8/11/7 9/13/7
f 10/14/5 8/12/5 5/6/5
f 11/15/7 9/16/7 8/17/7
f 10/14/5 11/18/5 8/12/5
f 10/14/5 12/19/5 11/18/5
f 12/20/8 13/21/7 11/22/7
f 9/16/7 11/15/7 13/23/7
f 15/24/9 14/25/9 13/18/9
f 13/18/9 14/25/9 9/12/9
f 13/21/7 12/20/8 15/26/8
f 15/26/8 12/20/8 16/27/10
f 15/26/8 16/27/10 17/28/11
f 17/29/9 14/25/9 15/24/9
f 18/30/9 14/25/9 17/29/9
f 17/28/11 19/31/12 18/32/13
f 17/28/11 16/27/10 19/31/12
f 10/14/5 20/33/5 19/34/5
f 18/32/13 19/31/12 20/35/14
f 10/14/5 19/34/5 16/36/5
f 10/14/5 21/37/5 20/33/5
f 22/38/14 20/35/14 21/39/15
f 18/32/13 20/35/14 22/38/14
f 23/40/9 14/25/9 22/41/9
f 22/41/9 14/25/9 18/30/9
f 22/38/14 21/39/15 23/42/15
f 25/43/9 14/25/9 23/40/9
f 23/42/15 21/39/15 24/44/16
f 23/42/15 24/44/16 25/45/16
f 14/25/9 25/43/9 27/46/9
f 25/45/16 24/44/16 26/47/17
f 25/45/16 26/47/17 27/48/17
f 27/48/17 26/47/17 14/49/18
f 14/49/18 26/47/17 28/50/18
f 10/14/5 28/51/5 26/52/5
f 10/14/5 26/52/5 24/53/5
f 29/54/18 14/16/18 28/17/18
f 10/14/5 29/55/5 28/51/5
f 14/16/18 29/54/18 30/56/18
f 31/57/19 30/58/18 29/59/18
f 10/14/5 31/60/5 29/55/5
f 31/57/19 32/61/20 30/58/18
f 33/62/21 32/61/20 31/57/19
f 10/14/5 33/63/5 31/60/5
f 33/62/21 34/64/22 32/61/20
f 10/14/5 35/65/5 33/63/5
f 35/66/23 34/64/22 33/62/21
f 38/67/23 35/66/23 36/68/24
f 36/68/24 35/66/23 37/69/25
f 10/14/5 37/70/5 35/65/5
f 34/64/22 35/66/23 38/67/23
f 39/71/9 38/72/9 36/73/9
f 39/71/9 34/74/9 38/72/9
f 40/75/26 42/76/27 39/77/28
f 40/75/26 39/77/28 5/78/28
f 39/71/9 36/73/9 43/79/9
f 39/71/9 56/80/9 41/81/9
f 39/71/9 41/81/9 57/82/9
f 49/16/28 5/83/28 39/84/28
f 42/85/9 14/25/9 39/71/9
f 39/71/9 43/79/9 47/86/9
f 39/71/9 46/87/9 44/88/9
f 39/71/9 44/88/9 45/89/9
f 39/71/9 45/89/9 52/90/9
f 39/71/9 47/86/9 46/87/9
f 39/71/9 32/91/9 34/74/9
f 39/71/9 14/25/9 30/92/9
f 39/71/9 30/92/9 32/91/9
f 39/71/9 50/93/9 48/94/9
f 39/71/9 48/94/9 49/95/9
f 39/71/9 51/96/9 50/93/9
f 39/71/9 57/82/9 51/96/9
f 39/71/9 52/90/9 53/97/9
f 39/71/9 53/97/9 54/98/9
f 39/71/9 54/98/9 55/99/9
f 39/71/9 55/99/9 56/80/9
f 59/100/29 51/101/29 57/102/30
f 58/103/31 57/102/30 41/104/32
f 59/100/29 57/102/30 58/103/31
f 61/105/33 51/101/29 59/100/29
f 58/106/5 60/107/5 59/108/5
f 59/108/5 60/107/5 61/109/5
f 51/101/29 61/105/33 50/110/33
f 62/111/33 50/16/33 61/17/33
f 61/109/5 60/107/5 62/112/5
f 64/113/34 63/114/34 62/105/33
f 62/105/33 63/114/34 48/110/33
f 50/16/33 62/111/33 48/115/33
f 62/112/5 60/107/5 64/116/5
f 65/117/35 63/114/34 64/113/34
f 64/116/5 60/107/5 65/118/5
f 65/117/35 66/119/35 63/114/34
f 67/120/36 66/119/35 65/117/35
f 65/118/5 60/107/5 67/121/5
f 67/121/5 60/107/5 68/122/5
f 68/123/37 69/124/36 67/120/36
f 67/120/36 69/124/36 66/119/35
f 69/124/36 68/123/37 71/125/37
f 49/95/9 66/126/9 69/127/9
f 49/95/9 69/127/9 70/128/9
f 70/128/9 69/127/9 71/129/9
f 70/128/9 71/129/9 72/130/9
f 71/125/37 68/123/37 72/131/38
f 72/131/38 75/132/39 73/133/40
f 72/131/38 73/133/40 74/134/41
f 70/128/9 72/130/9 74/135/9
f 72/131/38 68/123/37 75/132/39
f 75/136/5 60/107/5 73/137/5
f 68/122/5 60/107/5 75/136/5
f 74/134/41 73/133/40 70/138/42
f 73/137/5 60/107/5 76/139/5
f 70/138/42 73/133/40 76/140/43
f 76/139/5 60/107/5 10/14/5
f 70/138/42 76/140/43 10/78/28
f 70/138/42 10/78/28 49/77/28
f 49/95/9 63/141/9 66/126/9
f 49/95/9 48/94/9 63/141/9
f 60/107/5 78/142/5 77/143/5
f 77/144/44 52/49/18 60/50/18
f 45/16/18 60/145/18 52/146/18
f 78/142/5 60/107/5 79/147/5
f 79/147/5 60/107/5 80/148/5
f 80/148/5 60/107/5 81/149/5
f 81/149/5 60/107/5 58/106/5
f 10/14/5 60/107/5 82/150/5
f 60/145/18 45/16/18 82/17/18
f 44/151/19 83/152/45 82/59/18
f 44/151/19 82/59/18 45/58/18
f 10/14/5 82/150/5 83/153/5
f 46/154/46 83/152/45 44/151/19
f 46/154/46 84/155/17 83/152/45
f 10/14/5 83/153/5 84/156/5
f 47/157/23 85/158/23 84/155/17
f 47/157/23 84/155/17 46/154/46
f 10/14/5 84/156/5 85/159/5
f 43/160/24 85/158/23 47/157/23
f 85/158/23 43/160/24 86/161/24
f 10/14/5 85/159/5 86/162/5
f 36/16/24 86/163/24 43/164/24
f 86/163/24 36/16/24 37/17/25
f 10/14/5 86/162/5 37/70/5
f 81/165/47 56/166/48 80/167/48
f 81/165/47 41/104/32 56/166/48
f 58/103/31 41/104/32 81/165/47
f 80/167/48 56/166/48 55/168/49
f 80/167/48 55/168/49 79/169/49
f 79/169/49 54/170/50 78/171/50
f 79/169/49 55/168/49 54/170/50
f 78/171/50 53/172/44 77/144/44
f 78/171/50 54/170/50 53/172/44
f 77/144/44 53/172/44 52/49/18
f 5/83/28 49/16/28 10/17/28
f 87/173/51 42/76/27 40/75/26
f 87/173/51 88/174/52 42/76/27
f 88/175/9 14/25/9 42/85/9
f 89/176/53 88/174/52 87/173/51
f 89/176/53 90/177/54 88/174/52
f 90/178/9 14/25/9 88/175/9
f 91/179/9 14/25/9 90/178/9
f 89/176/53 91/180/55 90/177/54
f 92/181/55 3/1/1 91/180/55
f 92/181/55 91/180/55 89/176/53
f 3/182/9 14/25/9 91/179/9
f 40/183/5 4/8/5 92/184/5
f 4/5/4 3/1/1 92/181/55
f 40/183/5 92/184/5 89/185/5
f 40/183/5 89/185/5 87/186/5
f 5/6/5 4/8/5 40/183/5
f 10/14/5 24/53/5 21/37/5
f 10/14/5 16/36/5 12/19/5
f 9/12/9 14/25/9 7/187/9
f 7/187/9 14/25/9 2/188/9
f 2/188/9 14/25/9 3/182/9
