# Blender 3.6.5
# www.blender.org
mtllib Shelf.mtl
o IKE170027
v -0.210000 1.470000 0.195000
v -0.210000 1.420000 0.195000
v 0.210000 1.420000 0.195000
v 0.210000 1.470000 0.195000
v 0.210000 1.420000 -0.195000
v -0.210000 1.420000 -0.195000
v -0.210000 1.470000 -0.195000
v 0.210000 1.470000 -0.195000
v -0.210000 0.050000 0.195000
v -0.210000 0.000000 0.195000
v 0.210000 0.000000 0.195000
v 0.210000 0.050000 0.195000
v 0.210000 -0.000000 -0.195000
v -0.210000 -0.000000 -0.195000
v -0.210000 0.050000 -0.195000
v 0.210000 0.050000 -0.195000
v 0.165000 0.050000 0.195000
v 0.210000 0.050000 0.195000
v 0.210000 1.420000 0.195000
v 0.165000 1.420000 0.195000
v 0.210000 1.420000 -0.195000
v 0.210000 0.050000 -0.195000
v 0.165000 0.050000 -0.195000
v 0.165000 1.420000 -0.195000
v -0.165000 1.090000 0.195000
v -0.165000 1.073400 0.195000
v 0.165000 1.073400 0.195000
v 0.165000 1.090000 0.195000
v 0.165000 1.073400 -0.195000
v -0.165000 1.073400 -0.195000
v -0.165000 1.090000 -0.195000
v 0.165000 1.090000 -0.195000
v -0.165000 0.743400 0.195000
v -0.165000 0.726800 0.195000
v 0.165000 0.726800 0.195000
v 0.165000 0.743400 0.195000
v 0.165000 0.726800 -0.195000
v -0.165000 0.726800 -0.195000
v -0.165000 0.743400 -0.195000
v 0.165000 0.743400 -0.195000
v -0.165000 0.396800 0.195000
v -0.165000 0.380200 0.195000
v 0.165000 0.380200 0.195000
v 0.165000 0.396800 0.195000
v 0.165000 0.380200 -0.195000
v -0.165000 0.380200 -0.195000
v -0.165000 0.396800 -0.195000
v 0.165000 0.396800 -0.195000
v -0.160000 1.410000 -0.190000
v -0.125000 1.410000 -0.190000
v -0.125000 1.410000 -0.195000
v -0.165000 1.410000 -0.195000
v -0.165000 1.410000 -0.165000
v -0.160000 1.410000 -0.165000
v -0.160000 1.371122 -0.190000
v -0.160000 1.371122 -0.165000
v -0.165000 1.371122 -0.165000
v -0.165000 1.371122 -0.195000
v -0.125000 1.371122 -0.195000
v -0.125000 1.371122 -0.190000
v -0.210000 1.420000 0.195000
v -0.210000 0.050000 0.195000
v -0.165000 0.050000 0.195000
v -0.165000 1.420000 0.195000
v -0.165000 0.050000 -0.195000
v -0.210000 0.050000 -0.195000
v -0.210000 1.420000 -0.195000
v -0.165000 1.420000 -0.195000
v 0.160000 1.410000 -0.190000
v 0.160000 1.410000 -0.165000
v 0.165000 1.410000 -0.165000
v 0.165000 1.410000 -0.195000
v 0.125000 1.410000 -0.195000
v 0.125000 1.410000 -0.190000
v 0.160000 1.371122 -0.190000
v 0.125000 1.371122 -0.190000
v 0.125000 1.371122 -0.195000
v 0.165000 1.371122 -0.195000
v 0.165000 1.371122 -0.165000
v 0.160000 1.371122 -0.165000
vn -0.0000 -0.0000 1.0000
vn -0.0000 -0.0000 -1.0000
vn -0.0000 1.0000 -0.0000
vn -1.0000 -0.0000 -0.0000
vn -0.0000 -1.0000 -0.0000
vn 1.0000 -0.0000 -0.0000
vt 0.821101 0.577982
vt 0.798165 0.577982
vt 0.798165 0.385321
vt 0.821101 0.385321
vt 0.715596 0.821101
vt 0.715596 0.628440
vt 0.738532 0.628440
vt 0.738532 0.821101
vt -0.000000 0.628440
vt 0.178899 0.628440
vt 0.178899 0.821101
vt 0.000000 0.821101
vt 0.912844 0.628440
vt 0.912844 0.807339
vt 0.889908 0.807339
vt 0.889908 0.628440
vt 0.178899 0.628440
vt 0.357798 0.628440
vt 0.357798 0.821101
vt 0.178899 0.821101
vt 0.935780 0.628440
vt 0.935780 0.807339
vt 0.912844 0.807339
vt 0.912844 0.628440
vt 0.821101 0.192661
vt 0.798165 0.192661
vt 0.798165 0.000000
vt 0.821101 -0.000000
vt 0.798165 0.192661
vt 0.821101 0.192661
vt 0.821101 0.385321
vt 0.357798 0.628440
vt 0.536697 0.628440
vt 0.536697 0.821101
vt 0.958716 0.628440
vt 0.958716 0.807339
vt 0.536697 0.628440
vt 0.536697 0.821101
vt 0.981651 0.628440
vt 0.981651 0.807339
vt 0.756881 0.000000
vt 0.777523 0.000000
vt 0.777523 0.628440
vt 0.756881 0.628440
vt 0.798165 0.000000
vt 0.798165 0.628440
vt 0.951835 0.807339
vt 0.951835 0.986239
vt 0.931193 0.986239
vt 0.931193 0.807339
vt 0.000000 0.000000
vt 0.178899 -0.000000
vt 0.000000 0.628440
vt 0.972477 0.807339
vt 0.972477 0.986239
vt 0.951835 0.986239
vt 0.951835 0.807339
vt 0.178899 -0.000000
vt 0.357798 -0.000000
vt 0.178899 0.628440
vt 0.174220 0.972477
vt 0.166606 0.972477
vt 0.166606 0.821101
vt 0.174220 0.821101
vt 0.181835 0.821101
vt 0.181835 0.972477
vt 0.738532 0.807339
vt 0.980092 0.357798
vt 0.980092 0.536697
vt 0.972477 0.536697
vt 0.972477 0.357798
vt 0.972477 0.000000
vt 0.972477 0.178899
vt 0.821101 0.178899
vt 0.821101 0.000000
vt 0.987707 0.000000
vt 0.987707 0.178899
vt 0.980092 0.178899
vt 0.980092 0.000000
vt 0.158991 0.972477
vt 0.151376 0.972477
vt 0.151376 0.821101
vt 0.158991 0.821101
vt 0.166606 0.821101
vt 0.166606 0.972477
vt 0.972477 0.357798
vt 0.821101 0.357798
vt 0.821101 0.178899
vt 0.972477 0.536697
vt 0.821101 0.536697
vt 0.821101 0.357798
vt 0.972477 0.178899
vt 0.189450 0.972477
vt 0.181835 0.972477
vt 0.181835 0.821101
vt 0.189450 0.821101
vt 0.189450 0.821101
vt 0.197064 0.821101
vt 0.197064 0.972477
vt 0.889908 0.986239
vt 0.738532 0.986239
vt 0.980092 0.807339
vt 0.980092 0.986239
vt 0.972477 0.986239
vt 0.972477 0.807339
vt 0.151376 0.821101
vt 0.151376 1.000000
vt 0.000000 1.000000
vt 0.000000 0.821101
vt 0.987707 0.357798
vt 0.827467 0.594037
vt 0.827467 0.577982
vt 0.829761 0.577982
vt 0.829761 0.596330
vt 0.815999 0.596330
vt 0.815999 0.594037
vt 0.827467 0.598624
vt 0.815999 0.598624
vt 0.815999 0.596330
vt 0.829761 0.596330
vt 0.829761 0.614679
vt 0.827467 0.614679
vt 0.242936 0.821101
vt 0.242936 0.838935
vt 0.229174 0.838935
vt 0.229174 0.821101
vt 0.829761 0.595816
vt 0.829761 0.577982
vt 0.832054 0.577982
vt 0.832054 0.595816
vt 0.256697 0.838935
vt 0.256697 0.821101
vt 0.268165 0.821101
vt 0.268165 0.838935
vt 0.197064 0.838935
vt 0.197064 0.821101
vt 0.213119 0.821101
vt 0.213119 0.838935
vt 0.829761 0.613650
vt 0.829761 0.595816
vt 0.832054 0.613650
vt 0.815999 0.596330
vt 0.798165 0.596330
vt 0.815999 0.577982
vt 0.715596 0.628440
vt 0.715596 0.000000
vt 0.736239 0.000000
vt 0.736239 0.628440
vt 0.756881 0.000000
vt 0.756881 0.628440
vt 0.910551 0.807339
vt 0.910551 0.986239
vt 0.536697 -0.000000
vt 0.536697 0.000000
vt 0.715596 -0.000000
vt 0.715596 0.628440
vt 0.536697 0.628440
vt 0.832569 0.538991
vt 0.821101 0.538991
vt 0.821101 0.536697
vt 0.834863 0.536697
vt 0.834863 0.555046
vt 0.832569 0.555046
vt 0.832569 0.571101
vt 0.834863 0.573395
vt 0.821101 0.573395
vt 0.821101 0.571101
vt 0.242936 0.821101
vt 0.834348 0.577982
vt 0.834348 0.595816
vt 0.279633 0.821101
vt 0.279633 0.838935
vt 0.268165 0.821101
vt 0.213119 0.838935
vt 0.213119 0.821101
vt 0.229174 0.821101
vt 0.834348 0.595816
vt 0.834348 0.613650
vt 0.832054 0.613650
vt 0.832054 0.595816
vt 0.815999 0.614679
vt 0.798165 0.614679
s 1
g IKE170027_1
usemtl 1
f 1/1/1 2/2/1 3/3/1 4/4/1
f 5/5/2 6/6/2 7/7/2 8/8/2
f 4/9/3 8/10/3 7/11/3 1/12/3
f 1/13/4 7/14/4 6/15/4 2/16/4
f 2/17/5 6/18/5 5/19/5 3/20/5
f 3/21/6 5/22/6 8/23/6 4/24/6
f 9/25/1 10/26/1 11/27/1 12/28/1
f 13/3/2 14/29/2 15/30/2 16/31/2
f 12/32/3 16/33/3 15/34/3 9/19/3
f 9/35/4 15/36/4 14/22/4 10/21/4
f 10/37/5 14/6/5 13/5/5 11/38/5
f 11/39/6 13/40/6 16/36/6 12/35/6
f 17/41/1 18/42/1 19/43/1 20/44/1
f 21/43/2 22/42/2 23/45/2 24/46/2
f 19/47/3 21/48/3 24/49/3 20/50/3
f 18/51/6 22/52/6 21/17/6 19/53/6
f 17/54/5 23/55/5 22/56/5 18/57/5
f 20/58/4 24/59/4 23/32/4 17/60/4
f 25/61/1 26/62/1 27/63/1 28/64/1
f 29/61/2 30/64/2 31/65/2 32/66/2
f 28/16/3 32/15/3 31/67/3 25/7/3
f 25/68/4 31/69/4 30/70/4 26/71/4
f 26/72/5 30/73/5 29/74/5 27/75/5
f 27/76/6 29/77/6 32/78/6 28/79/6
f 33/80/1 34/81/1 35/82/1 36/83/1
f 37/80/2 38/83/2 39/84/2 40/85/2
f 36/73/3 40/86/3 39/87/3 33/88/3
f 33/79/4 39/78/4 38/73/4 34/72/4
f 34/86/5 38/89/5 37/90/5 35/91/5
f 35/78/6 37/68/6 40/71/6 36/92/6
f 41/93/1 42/94/1 43/95/1 44/96/1
f 45/93/2 46/97/2 47/98/2 48/99/2
f 44/15/3 48/100/3 47/101/3 41/67/3
f 41/102/4 47/103/4 46/104/4 42/105/4
f 42/106/5 46/107/5 45/108/5 43/109/5
f 43/77/6 45/110/6 48/68/6 44/78/6
f 49/111/3 50/112/3 51/113/3 52/114/3
f 53/115/3 54/116/3 49/111/3 52/114/3
f 55/117/5 56/118/5 57/119/5 58/120/5
f 59/121/5 60/122/5 55/117/5 58/120/5
f 52/123/4 58/124/4 57/125/4 53/126/4
f 53/127/1 57/128/1 56/129/1 54/130/1
f 54/131/6 56/132/6 55/133/6 49/134/6
f 49/135/1 55/136/1 60/137/1 50/138/1
f 50/139/6 60/140/6 59/130/6 51/141/6
f 51/142/2 59/143/2 58/2/2 52/144/2
f 61/145/1 62/146/1 63/147/1 64/148/1
f 65/147/2 66/149/2 67/150/2 68/148/2
f 64/151/3 68/152/3 67/100/3 61/15/3
f 61/59/4 67/153/4 66/33/4 62/32/4
f 62/50/5 66/49/5 65/152/5 63/151/5
f 63/154/6 65/155/6 68/156/6 64/157/6
f 69/158/3 70/159/3 71/160/3 72/161/3
f 73/162/3 74/163/3 69/158/3 72/161/3
f 75/164/5 76/163/5 77/162/5 78/165/5
f 79/166/5 80/167/5 75/164/5 78/165/5
f 71/124/6 79/168/6 78/132/6 72/131/6
f 70/130/1 80/129/1 79/169/1 71/170/1
f 69/171/4 75/172/4 80/134/4 70/173/4
f 74/174/1 76/175/1 75/176/1 69/125/1
f 73/177/4 77/178/4 76/179/4 74/180/4
f 72/181/2 78/182/2 77/143/2 73/142/2
